<svg width="126" height="21" viewBox="0 0 126 21" fill="none" xmlns="http://www.w3.org/2000/svg">
<path d="M3.52652 3.9169C2.87276 3.9169 2.34473 3.73592 1.94241 3.37396C1.55267 2.99908 1.3578 2.5337 1.3578 1.97784C1.3578 1.40905 1.55267 0.937212 1.94241 0.562328C2.34473 0.187443 2.87276 0 3.52652 0C4.16771 0 4.68317 0.187443 5.07291 0.562328C5.47522 0.937212 5.67638 1.40905 5.67638 1.97784C5.67638 2.5337 5.47522 2.99908 5.07291 3.37396C4.68317 3.73592 4.16771 3.9169 3.52652 3.9169ZM5.37464 16.8698C5.37464 19.6233 4.02941 21 1.33895 21H0V17.7618H0.792053C1.10636 17.7618 1.33266 17.6971 1.47095 17.5679C1.60925 17.4386 1.6784 17.2253 1.6784 16.928V4.92521H5.37464V16.8698Z" fill="white"/>
<path d="M7.61201 10.3546C7.61201 9.22992 7.80688 8.24746 8.19662 7.4072C8.59894 6.56694 9.13954 5.92059 9.81845 5.46814C10.5099 5.0157 11.2768 4.78947 12.1192 4.78947C12.8484 4.78947 13.477 4.93814 14.005 5.23546C14.533 5.53278 14.9416 5.93352 15.2308 6.43767V4.92521H18.927V15.8033H15.2308V14.2909C14.9416 14.795 14.5268 15.1958 13.9861 15.4931C13.4581 15.7904 12.8358 15.9391 12.1192 15.9391C11.2768 15.9391 10.5099 15.7128 9.81845 15.2604C9.13954 14.8079 8.59894 14.1616 8.19662 13.3213C7.80688 12.4681 7.61201 11.4792 7.61201 10.3546ZM15.2308 10.3546C15.2308 9.65651 15.0422 9.10711 14.6651 8.70637C14.3005 8.30563 13.8479 8.10526 13.3072 8.10526C12.7541 8.10526 12.2952 8.30563 11.9306 8.70637C11.566 9.09418 11.3837 9.64358 11.3837 10.3546C11.3837 11.0526 11.566 11.6085 11.9306 12.0222C12.2952 12.4229 12.7541 12.6233 13.3072 12.6233C13.8479 12.6233 14.3005 12.4229 14.6651 12.0222C15.0422 11.6214 15.2308 11.0656 15.2308 10.3546Z" fill="white"/>
<path d="M28.4069 15.8033L25.4839 11.3435V15.8033H21.7876V1.45429H25.4839V9.19114L28.4069 4.92521H32.8387L28.6709 10.3934L32.9141 15.8033H28.4069Z" fill="white"/>
<path d="M44.8601 10.2382C44.8601 10.5356 44.8413 10.8329 44.8036 11.1302H37.8071C37.8448 11.7248 38.002 12.1708 38.2786 12.4681C38.5677 12.7525 38.9323 12.8947 39.3723 12.8947C39.9884 12.8947 40.4284 12.6103 40.6924 12.0416H44.6338C44.4704 12.7913 44.1498 13.4635 43.6721 14.0582C43.2069 14.6399 42.616 15.0988 41.8994 15.4349C41.1828 15.771 40.3907 15.9391 39.5232 15.9391C38.4797 15.9391 37.5494 15.7128 36.7322 15.2604C35.9275 14.8079 35.2926 14.1616 34.8275 13.3213C34.3749 12.4811 34.1486 11.4922 34.1486 10.3546C34.1486 9.21699 34.3749 8.23453 34.8275 7.4072C35.2801 6.56694 35.9087 5.92059 36.7133 5.46814C37.5305 5.0157 38.4671 4.78947 39.5232 4.78947C40.5667 4.78947 41.4908 5.00923 42.2954 5.44875C43.1 5.88827 43.7286 6.5217 44.1812 7.34903C44.6338 8.16344 44.8601 9.1265 44.8601 10.2382ZM41.0885 9.28809C41.0885 8.82271 40.9376 8.46076 40.6359 8.20222C40.3341 7.93075 39.957 7.79501 39.5044 7.79501C39.0518 7.79501 38.6809 7.92428 38.3917 8.18283C38.1025 8.42844 37.914 8.79686 37.826 9.28809H41.0885Z" fill="white"/>
<path d="M52.0492 15.9391C50.9931 15.9391 50.0439 15.7128 49.2015 15.2604C48.3718 14.8079 47.718 14.1616 47.2403 13.3213C46.7625 12.4811 46.5237 11.4922 46.5237 10.3546C46.5237 9.22992 46.7625 8.24746 47.2403 7.4072C47.7306 6.56694 48.3906 5.92059 49.2204 5.46814C50.0628 5.0157 51.012 4.78947 52.068 4.78947C53.1241 4.78947 54.067 5.0157 54.8968 5.46814C55.7391 5.92059 56.3992 6.56694 56.8769 7.4072C57.3672 8.24746 57.6124 9.22992 57.6124 10.3546C57.6124 11.4792 57.3672 12.4681 56.8769 13.3213C56.3992 14.1616 55.7391 14.8079 54.8968 15.2604C54.0544 15.7128 53.1052 15.9391 52.0492 15.9391ZM52.0492 12.6427C52.5646 12.6427 52.9921 12.4488 53.3315 12.0609C53.6836 11.6602 53.8596 11.0914 53.8596 10.3546C53.8596 9.61773 53.6836 9.0554 53.3315 8.66759C52.9921 8.27978 52.5709 8.08587 52.068 8.08587C51.5651 8.08587 51.144 8.27978 50.8045 8.66759C50.4651 9.0554 50.2953 9.61773 50.2953 10.3546C50.2953 11.1043 50.4588 11.6731 50.7857 12.0609C51.1125 12.4488 51.5337 12.6427 52.0492 12.6427Z" fill="white"/>
<path d="M63.5668 6.84488C63.9817 6.22438 64.4846 5.73315 65.0755 5.37119C65.6664 5.00923 66.3012 4.82826 66.9801 4.82826V8.88089H65.9429C65.1383 8.88089 64.5411 9.04247 64.1514 9.36565C63.7617 9.68883 63.5668 10.2512 63.5668 11.0526V15.8033H59.8705V4.92521H63.5668V6.84488Z" fill="white"/>
<path d="M68.4561 10.3546C68.4561 9.22992 68.651 8.24746 69.0407 7.4072C69.443 6.56694 69.9899 5.92059 70.6814 5.46814C71.3729 5.0157 72.1398 4.78947 72.9821 4.78947C73.661 4.78947 74.2645 4.93814 74.7925 5.23546C75.3331 5.51985 75.7543 5.91413 76.056 6.41828V1.45429H79.7711V15.8033H76.056V14.2909C75.7669 14.795 75.3583 15.1958 74.8302 15.4931C74.3022 15.7904 73.6799 15.9391 72.9633 15.9391C72.1209 15.9391 71.354 15.7128 70.6625 15.2604C69.9836 14.8079 69.443 14.1616 69.0407 13.3213C68.651 12.4681 68.4561 11.4792 68.4561 10.3546ZM76.0749 10.3546C76.0749 9.65651 75.8863 9.10711 75.5092 8.70637C75.1446 8.30563 74.6919 8.10526 74.1513 8.10526C73.5982 8.10526 73.1393 8.30563 72.7747 8.70637C72.4101 9.09418 72.2278 9.64358 72.2278 10.3546C72.2278 11.0526 72.4101 11.6085 72.7747 12.0222C73.1393 12.4229 73.5982 12.6233 74.1513 12.6233C74.6919 12.6233 75.1446 12.4229 75.5092 12.0222C75.8863 11.6214 76.0749 11.0656 76.0749 10.3546Z" fill="white"/>
<path d="M84.4233 15.9584C83.7695 15.9584 83.2415 15.7775 82.8392 15.4155C82.4494 15.0406 82.2546 14.5688 82.2546 14C82.2546 13.4312 82.4494 12.9594 82.8392 12.5845C83.2415 12.2096 83.7695 12.0222 84.4233 12.0222C85.0645 12.0222 85.5799 12.2096 85.9697 12.5845C86.372 12.9594 86.5731 13.4312 86.5731 14C86.5731 14.5559 86.372 15.0212 85.9697 15.3961C85.5799 15.771 85.0645 15.9584 84.4233 15.9584Z" fill="white"/>
<path d="M88.4549 10.3546C88.4549 9.22992 88.6497 8.24746 89.0395 7.4072C89.4418 6.56694 89.9887 5.92059 90.6801 5.46814C91.3716 5.0157 92.1385 4.78947 92.9809 4.78947C93.6598 4.78947 94.2632 4.93814 94.7913 5.23546C95.3319 5.51985 95.7531 5.91413 96.0548 6.41828V1.45429H99.7699V15.8033H96.0548V14.2909C95.7656 14.795 95.357 15.1958 94.829 15.4931C94.3009 15.7904 93.6786 15.9391 92.962 15.9391C92.1197 15.9391 91.3528 15.7128 90.6613 15.2604C89.9824 14.8079 89.4418 14.1616 89.0395 13.3213C88.6497 12.4681 88.4549 11.4792 88.4549 10.3546ZM96.0736 10.3546C96.0736 9.65651 95.8851 9.10711 95.5079 8.70637C95.1433 8.30563 94.6907 8.10526 94.1501 8.10526C93.5969 8.10526 93.138 8.30563 92.7734 8.70637C92.4088 9.09418 92.2265 9.64358 92.2265 10.3546C92.2265 11.0526 92.4088 11.6085 92.7734 12.0222C93.138 12.4229 93.5969 12.6233 94.1501 12.6233C94.6907 12.6233 95.1433 12.4229 95.5079 12.0222C95.8851 11.6214 96.0736 11.0656 96.0736 10.3546Z" fill="white"/>
<path d="M112.739 10.2382C112.739 10.5356 112.72 10.8329 112.682 11.1302H105.686C105.723 11.7248 105.88 12.1708 106.157 12.4681C106.446 12.7525 106.811 12.8947 107.251 12.8947C107.867 12.8947 108.307 12.6103 108.571 12.0416H112.512C112.349 12.7913 112.028 13.4635 111.55 14.0582C111.085 14.6399 110.494 15.0988 109.778 15.4349C109.061 15.771 108.269 15.9391 107.402 15.9391C106.358 15.9391 105.428 15.7128 104.611 15.2604C103.806 14.8079 103.171 14.1616 102.706 13.3213C102.253 12.4811 102.027 11.4922 102.027 10.3546C102.027 9.21699 102.253 8.23453 102.706 7.4072C103.159 6.56694 103.787 5.92059 104.592 5.46814C105.409 5.0157 106.346 4.78947 107.402 4.78947C108.445 4.78947 109.369 5.00923 110.174 5.44875C110.978 5.88827 111.607 6.5217 112.06 7.34903C112.512 8.16344 112.739 9.1265 112.739 10.2382ZM108.967 9.28809C108.967 8.82271 108.816 8.46076 108.514 8.20222C108.213 7.93075 107.835 7.79501 107.383 7.79501C106.93 7.79501 106.559 7.92428 106.27 8.18283C105.981 8.42844 105.792 8.79686 105.704 9.28809H108.967Z" fill="white"/>
<path d="M120.078 12.2161L122.059 4.92521H126L122.36 15.8033H117.759L114.119 4.92521H118.061L120.078 12.2161Z" fill="white"/>
<path d="M8 19H125V21H8V19Z" fill="#FDE3A7"/>
</svg>
