<?xml version="1.0" encoding="UTF-8"?>
<svg id="Layer_1" data-name="Layer 1" xmlns="http://www.w3.org/2000/svg" viewBox="0 0 506.93 494.84">
  <defs>
    <style>
      .cls-1 {
        fill: #f8dec8;
      }

      .cls-2 {
        fill: #f28075;
      }

      .cls-3 {
        fill: #6b67b4;
      }

      .cls-4 {
        fill: #18181f;
      }

      .cls-5 {
        fill: #584b5a;
      }
    </style>
  </defs>
  <path class="cls-5" d="M86.71,130.46v-1c3.81-3.19,15.6-7.53,16.66-12.11,1.6-6.91-8.09-12.38-12.66-15.74-15.26-11.19-33.38-19.78-52-23.35-6.47-1.24-24.85-5.66-28.26,2.3-2.12,4.95,.04,13.71,.85,18.89,2.96,18.92,10.71,36.72,22.16,52,3.97,5.3,9.65,14.09,16.25,16.21,9.8,3.14,9.03-18.16,18.72-13.97,6.23,2.69,4.56,19.4,4.19,24.76-1.3,18.6-12.55,32.47-22.91,47-10.35,14.51-20.04,29.88-27.7,46-29.01,61.03-37.97,145.09,27.7,187.3,10.52,6.77,22.66,10.79,35,12.57,15.4,2.21,29.88,.25,45-2.87,0,7.25-1.54,19.72,6.1,23.97,8.01,4.45,25.8,1.03,34.9,1.03h88c9.65,0,29.47,3.79,37.85-1.18,4.2-2.49,3.35-8.73,2.71-12.82-1.71-10.83-7.57-21.01-17.56-26l2-5c12.24,2.9,23.77,8.89,36,12.12,9.96,2.63,22.76,3,32,7.32,8.27,3.87,12.65,14.25,20,19.64,10.29,7.54,22.94,5.93,35,5.93h32c4.16,0,10.12,1.03,13.85-1.18,8.53-5.05,1.35-26.49-2.32-32.82-9.08-15.68-22.46-16.76-36.54-24.93-6.07-3.52-11.1-10.37-15-16.07,58.76-25.35,61.8-106.66,78.74-159,4.51-13.91,12.03-26.38,17.19-40,6.17-16.26,9.3-32.83,11.35-50,3.04-25.45-.45-63.78-23.29-80v-1c18.51-17.1,16.73-54.17-1.04-70.83-5.38-5.04-30.14-20.36-35.74-9.06-2.68,5.42,5.88,12.24,6.78,17.89-8.83-3.62-30.38-10.46-38.4-1.49-6.69,7.49,10.55,12.8,13.69,17.49,4.96,7.42-.03,16.77-4.83,23-18.15,23.54-51.01,14.3-74.47,27.35-11.12,6.19-23.96,21.91-20.91,35.65,2.7,12.16,15.32,11.49,24.91,13.9,12.18,3.06,22.8,10.15,35,13.21,9.04,2.27,20.64,1.04,27.98,7.22,24.98,21.02-.23,57.48-23.98,65.97-19.48,6.96-33.75-1.1-52-6.58-10.81-3.24-22.76-4.49-34-4.72,5.72-24.04-16.1-33.55-20.19-54-4.2-20.98,2.34-48.98,8.86-69,3.62-11.1,9.43-22.23,10.24-34,.63-9.16-2.08-32.93-11.12-37.96-4.32-2.4-7.83,1.9-10.15,4.97-5.46,7.24-9.6,15.7-13.22,23.98-14.65,33.58-30.66,73.84-31.42,111-5.49-.98-17.16-4.97-18.67-11.09-1.09-4.41,2.39-9.66-.94-13.59-5.31-6.28-9.96,1.85-10.4,6.68-12.99-13.1-23.71-31.91-22.96-51,.62-15.9,6.96-30.95,6.96-47,0-11.33-1.13-39.8-13.1-45.78-8.18-4.09-14.92,11.38-17.62,16.78-10.62,21.24-15.84,45.61-18.99,69-6.92,51.38-4.62,103.62,.88,155,1.51,14.11,3.7,28.16,6.85,42,1.44,6.32,5.06,12.95,1.34,19-12.48,20.29-25.18,43.52-41.44,61-7.92,8.51-17.98,15.73-29.91,10.08-22.99-10.88-18.6-50.1-13.62-70.08,4.06-16.33,12.64-30.02,19.84-45,11.98-24.93,20.79-48.14,20.78-76,0-17.85-5.68-41.12-21-52Z"/>
  <path class="cls-3" d="M175.71,15.46l1,1-1-1Z"/>
  <path class="cls-2" d="M175.71,16.46c-26.03,44.59-28.53,107.8-25.09,158,2.2,32.14,2.69,64.15,8.7,96,9.68,51.3,33.9,98.27,73.39,132.84,13.98,12.24,29.49,21.16,46,29.4,17.5,8.75,37.46,17.12,57,19.75-11.64-14.1-32.19-20.07-48-27.97-8.64-4.32-16.42-10.54-24-16.45-45.99-35.85-74.14-89.29-86.58-145.58-11.82-53.54-12.12-108.89-4.15-163,3.1-21.01,10.18-41.64,7.89-63-.71-6.64-1.06-14.48-5.17-20Z"/>
  <path class="cls-3" d="M173.71,18.46l1,1-1-1m290,1l1.6,17.61,18.4,13.39c-.04-14.17-6.74-25.28-20-31m-291,1l1,1-1-1m-1,2l1,1-1-1m-1,2l1,1-1-1m8,0l1,1-1-1m-9,2l1,1-1-1Z"/>
  <path class="cls-4" d="M452.71,26.46l1,1-1-1Z"/>
  <path class="cls-3" d="M179.71,29.46l1,1-1-1m-12,2l1,1-1-1m-2,5l1,1-1-1m15,0v3h1l-1-3m-16,3l1,1-1-1m-1,3l1,1-1-1m-1,3l1,1-1-1m291,14v1c7.11,7.11,14.14,14.08,17,24,11.77-6.02,10.96-19.47,2.91-27.98-2.48-2.62-7.54-7.96-11.7-6.6-3.39,1.11-6.08,6.89-8.21,9.58m-293-7l1,1-1-1m20,0v3h1l-1-3m-21,4l1,1-1-1m-1,4l1,1-1-1m21,1l1,1-1-1m-1,4l1,1-1-1m256,10c1.42,4.48,3.91,8.47,5.28,13,1.04,3.46,.6,10.62,3.32,13.06,5.31,4.76,17.15-2.18,18.49-8.08,1.59-6.99-8.55-24.26-16.1-24.35-3.85-.05-7.89,4.43-11,6.37m-278-6l1,1-1-1m21,1l1,1-1-1m-22,5l1,1-1-1m21,0l1,1-1-1m-22,5l1,1-1-1m21,0l1,1-1-1m-167,2c-19.54,9.72-1.04,36.76,11,46l-7.55-25-3.45-21Z"/>
  <path class="cls-2" d="M454.71,151.46l-11.45-18.02,15.45-17.98c-7.61-1.81-20.09-.14-25.4-7.21-3.95-5.26,.06-23.29-8.71-24.79-5.28-.9-14.69,5.36-19.89,6.98-16.27,5.06-38.97,3.62-53,13.66-4.8,3.43-16.48,16.19-11.97,22.93,3.11,4.65,19.48,5.42,24.97,7.5,13.53,5.13,25.3,11.36,40,12.77,11.79,1.13,23.59-2.98,35-2.14,5.15,.38,10.29,4.35,15,6.31Z"/>
  <path class="cls-3" d="M174.71,85.46l1,1-1-1m242,0l1,1-1-1m-396,2c3.2,25.31,11.96,45.1,28,65h1l16-11c-2.73-6.32-12.86-14.5-13.05-20.98-.35-11.89,22.07,1.53,26.05,2.98l9-10c-19.79-14.17-42.16-25.49-67-26m133,0l1,1-1-1m258,0l1,1-1-1m17,1l1,1-1-1m-26,2l1,1-1-1m-229,1l1,1-1-1m256,0l1,1-1-1m-34,1l1,1-1-1m-5,1l1,1-1-1m-237.67,1.67l.33,.67-.33-.67m233.67-.67l1,1-1-1m-6,1l1,1-1-1m-6,1l1,1-1-1m-201.67,1.67l.33,.67-.33-.67m194.67-.67l1,1-1-1m63.33,.67l.33,.67-.33-.67Z"/>
  <path class="cls-2" d="M469.71,104.46c9.63,8.05-5.99,22.94-12,29v1c16.41,21.53,26.83,46.79,28,74,4.42-5.9,5.8-14.87,7.2-22,3.88-19.76,4.79-41.57-1.22-61-2.02-6.54-14.47-36.16-21.98-21Z"/>
  <path class="cls-3" d="M359.71,99.46l1,1-1-1m39,2l1,1-1-1Z"/>
  <path class="cls-5" d="M399.69,102.12c-8.01,.46-10.06,11.05-.98,10.53,7.7-.44,9.26-11.01,.98-10.53Z"/>
  <path class="cls-3" d="M401.71,101.46l1,1-1-1m-7,1l1,1-1-1m-242.67,1.67l.33,.67-.33-.67m252.67-.67l1,1-1-1m-233,1l1,1-1-1m220,1l1,1-1-1m14.33,1.67l.33,.67-.33-.67m25.67,.33l1,1-1-1m-88,4l1,1-1-1m94,0l1,1-1-1m-267,1l1,1-1-1m225,0l1,1-1-1m2,0l1,1-1-1m44,0l1,1-1-1m5,1l1,1-1-1m40,0l1,1-1-1m-145,1l1,1-1-1m115.67,.33l.67,.33-.67-.33m-306.33,1.33l.33,.67-.33-.67m336.67-.67l1,1-1-1m-147,1l1,1-1-1m-1,2l1,1-1-1m-169.67,2.67l.33,.67-.33-.67m168.67-.67l1,1-1-1m151,0l1,1-1-1m-309,3l1,1-1-1m157.33,.67l.33,.67-.33-.67m152.67-.67l1,1-1-1Z"/>
  <path class="cls-1" d="M180.71,124.46c-.74,36.05-5.12,71,1.42,107,3.48,19.13,11.54,38.04,18.78,56,8.82,21.87,21.35,48.38,43.8,59-3.32-8.77-9.74-16.41-13.69-25-8.59-18.7-14.88-38.77-18.7-59-4.01-21.27-6.61-43.37-6.61-65,0-11.09,3.77-26.39,1.11-37-1.38-5.52-8.29-9.92-11.94-14-5.97-6.69-9.26-14.69-14.17-22Z"/>
  <path class="cls-3" d="M448.71,125.46l1,1-1-1m-269,1v3h1l-1-3Z"/>
  <path class="cls-2" d="M181.71,126.46l1,1-1-1Z"/>
  <path class="cls-3" d="M491.71,126.46l1,1-1-1m-472,2l1,1-1-1Z"/>
  <path class="cls-2" d="M182.71,128.46l1,1-1-1Z"/>
  <path class="cls-3" d="M340.71,128.46l1,1-1-1m103,0l1,1-1-1Z"/>
  <path class="cls-2" d="M180.04,130.13l.33,.67-.33-.67Z"/>
  <path class="cls-3" d="M347.38,129.79l.67,.33-.67-.33Z"/>
  <path class="cls-2" d="M183.71,130.46l1,1-1-1Z"/>
  <path class="cls-3" d="M352.71,130.46l1,1-1-1m140,0l1,1-1-1m-323.67,1.67l.33,.67-.33-.67m187.67-.67l1,1-1-1Z"/>
  <path class="cls-2" d="M184.71,132.46l1,1-1-1Z"/>
  <path class="cls-3" d="M359.71,132.46l1,1-1-1m-286,1l1,1-1-1m76,0v5h1l-1-5m213,0l1,1-1-1Z"/>
  <path class="cls-2" d="M74.71,134.46c5.54,16.5,11.36,31.08,8.56,49-4.06,25.97-22.74,44.49-36.14,66C23.76,286.99,3.09,335.42,12.16,380.46c10.7,53.17,60.92,96.12,116.51,76.21,6.24-2.23,9.92-10.58,15.04-14.74,9.77-7.94,22.13-13.81,34-17.8,4.65-1.56,15.67-7.2,19.15-1.52,4.84,7.91-16.69,11.41-21.15,13.08-22.28,8.32-38.69,21.51-34,46.77h80l39-1c-6.53-15.56-25.4-15.08-40-16.09-4.65-.32-16.57,.68-19.03-4.06-2.98-5.74,6.42-8.17,10.03-9.29,11.01-3.39,30.11-11.29,29.67-25.55-.17-5.53-7.88-9.34-11.67-12.44-8.45-6.92-16.5-14.47-23.83-22.58-3.97-4.39-7.48-10.33-13.18-12.6-6.47-2.57-21.16-.89-25.34-6.68-6.65-9.21,13.74-7.39,17.35-6.72l-25-53h-1c-8.09,14.07-17.37,28.67-26.72,42-7.57,10.79-16.82,24.29-29.28,29.66-29.75,12.84-48.84-18.07-49.96-43.66-.87-19.89,1.93-39.46,9.41-58,11.3-27.98,30.48-53.25,34.26-84,2.6-21.17-1.44-52.25-21.71-64Z"/>
  <path class="cls-3" d="M365.71,134.46l1,1-1-1m-289,1l1,1-1-1m110,0l1,1-1-1m256,0l1,1-1-1m51,0l1,1-1-1m-315,1v4h1l-1-4m265,0l1,1-1-1m-368,1l1,1-1-1Z"/>
  <path class="cls-2" d="M187.71,137.46l1,1-1-1Z"/>
  <path class="cls-3" d="M372.71,137.46l1,1-1-1m-184,1l1,1-1-1m186,0l1,1-1-1m2,1l1,1-1-1Z"/>
  <path class="cls-2" d="M179.04,141.13l.33,.67-.33-.67m10.67-.67l1,1-1-1Z"/>
  <path class="cls-3" d="M378.71,140.46l1,1-1-1m70,0l1,1-1-1m-366,1l1,1-1-1m108,0l1,1-1-1m304.33,.67l.33,.67-.33-.67m-111.33,.33l1,1-1-1m3,1l1,1-1-1m-219,1v4h1l-1-4Z"/>
  <path class="cls-2" d="M192.71,144.46l1,1-1-1Z"/>
  <path class="cls-3" d="M390.71,144.46l1,1-1-1m50,0l1,1-1-1m11,0l1,1-1-1m-366,1l1,1-1-1m108,0l1,1-1-1m201,0l1,1-1-1m39,0l1,1-1-1m-239,1l1,1-1-1m207,0l1,1-1-1m24.67,.33l.67,.33-.67-.33m-346.67,.67l1,1-1-1m374,1l1,1-1-1m-276,3v6h1l-1-6m292,2l1,1-1-1m-388,1l1,1-1-1m122,1l1,1-1-1m232.67,.33l.67,.33-.67-.33Z"/>
  <path class="cls-2" d="M427.71,157.46l2,4,36,7-1-4c-8.91,1.66-15.84-5.68-24-7.94-4.17-1.16-8.79,.61-13,.94Z"/>
  <path class="cls-3" d="M439.71,155.46l1,1-1-1m-235,1l1,1-1-1m226.67,.33l.67,.33-.67-.33m10.33-.33l1,1-1-1m30,0l1,1-1-1Z"/>
  <path class="cls-2" d="M177.71,157.46v5h1l-1-5m28,0l1,1-1-1Z"/>
  <path class="cls-3" d="M443.71,157.46l1,1-1-1Z"/>
  <path class="cls-2" d="M206.71,158.46l1,1-1-1Z"/>
  <path class="cls-3" d="M427.71,158.46l1,1-1-1m18,0l1,1-1-1m27,0l1,1-1-1m-25,1l1,1-1-1m-365,1l1,1-1-1m10,0l1,1-1-1Z"/>
  <path class="cls-1" d="M430.71,161.46c3.88,10.68,7.41,19.26,5.56,31-1.04,6.57-7.9,17.88-4.57,24,5.41,9.95,21.2,16.47,32.01,16.96,3.15,.14,9.69,1.19,11.4-2.28,2.53-5.15,.29-14.23-.23-19.68-1.44-15.12-4.18-28.37-8.17-43-12.86,1.8-23-10.83-36-7Z"/>
  <path class="cls-3" d="M449.71,160.46l1,1-1-1m24,0l1,1-1-1Z"/>
  <path class="cls-2" d="M207.04,162.13l.33,.67-.33-.67Z"/>
  <path class="cls-3" d="M429.71,161.46l1,1-1-1m22,0l1,1-1-1m23,1l1,1-1-1m-268,1v3h1l-1-3Z"/>
  <path class="cls-2" d="M431.71,164.46l1,1-1-1Z"/>
  <path class="cls-3" d="M458.71,164.46l1,1-1-1m4,0l1,1-1-1m13,0l1,1-1-1m-258,1l1,1-1-1m247,0l1,1-1-1Z"/>
  <path class="cls-1" d="M217.71,166.46c-.03,50.11,.42,97.92,20.72,145,4.4,10.19,9.74,19.79,15.95,29,2.33,3.45,5.26,8.91,9.42,10.36,4.77,1.67,12.53-1.47,16.91-3.36-4.35-9.32-13.07-16.41-17.74-26-10.06-20.64-13.93-44.34-16.09-67-1.21-12.68-2.21-26.27-1-39,.86-9,4.72-22.41,1.57-31-3.55-9.66-20.62-15.12-29.74-18Z"/>
  <path class="cls-3" d="M219.71,166.46l1,1-1-1Z"/>
  <path class="cls-2" d="M432.71,166.46l1,1-1-1Z"/>
  <path class="cls-3" d="M465.71,167.46l1,1-1-1m-371,1l1,1-1-1m122,0v5h1l-1-5Z"/>
  <path class="cls-2" d="M222.71,168.46l1,1-1-1m211,0l1,1-1-1m-209,1l1,1-1-1Z"/>
  <path class="cls-3" d="M433.71,169.46l1,1-1-1m44,0l1,1-1-1m17,0v3h1l-1-3m-345,1v7h1l-1-7m78,0l1,1-1-1Z"/>
  <path class="cls-2" d="M466.71,170.46l1,1-1-1Z"/>
  <path class="cls-3" d="M229.71,171.46l1,1-1-1Z"/>
  <path class="cls-2" d="M434.71,171.46l1,1-1-1m-203,1l1,1-1-1Z"/>
  <path class="cls-3" d="M434.71,172.46l1,1-1-1m33,0l1,1-1-1m11,0l1,1-1-1m-383,1l1,1-1-1Z"/>
  <path class="cls-2" d="M216.71,173.46v3h1l-1-3Z"/>
  <path class="cls-3" d="M234.71,173.46l1,1-1-1m3,1l1,1-1-1Z"/>
  <path class="cls-2" d="M205.71,175.46v5h1l-1-5Z"/>
  <path class="cls-3" d="M239.71,175.46l1,1-1-1Z"/>
  <path class="cls-2" d="M435.71,175.46l1,1-1-1Z"/>
  <path class="cls-3" d="M468.71,175.46l1,1-1-1m11,0l1,1-1-1m-44,1l1,1-1-1m-193,1l1,1-1-1m1,1l1,1-1-1m226,0l1,1-1-1m24.33,.67l.33,.67-.33-.67m-249.33,.33l1,1-1-1m236,0l1,1-1-1m-275,1v25h1l-1-25m265,1l1,1-1-1m-224,1l1,1-1-1Z"/>
  <path class="cls-2" d="M470.71,182.46l1,1-1-1Z"/>
  <path class="cls-3" d="M82.71,183.46l1,1-1-1m399,0l1,1-1-1m11,1l1,1-1-1m-396,1v3h1l-1-3m151,0l1,1-1-1m224.33,.67l.33,.67-.33-.67Z"/>
  <path class="cls-2" d="M177.71,186.46v5h1l-1-5m70,0l1,1-1-1m224,1l1,1-1-1Z"/>
  <path class="cls-3" d="M81.71,188.46l1,1-1-1m401,0l1,1-1-1m9,1l1,1-1-1m-55.67,1.67l.33,.67-.33-.67m37,0l.33,.67-.33-.67m-295.33,.33v6h1l-1-6m-97,1l1,1-1-1Z"/>
  <path class="cls-2" d="M247.71,192.46l1,1-1-1m188,0l1,1-1-1m37,0l1,1-1-1Z"/>
  <path class="cls-3" d="M248.04,194.13l.33,.67-.33-.67m242.67-.67l1,1-1-1m-340,1v3h1l-1-3m333,0l1,1-1-1m-316,1v3h1l-1-3m267,1l1,1-1-1Z"/>
  <path class="cls-2" d="M434.71,197.46l1,1-1-1Z"/>
  <path class="cls-3" d="M474.04,198.13l.33,.67-.33-.67m-378.33,1.33l1,1-1-1Z"/>
  <path class="cls-2" d="M246.71,199.46l1,1-1-1m227.33,.67l.33,.67-.33-.67Z"/>
  <path class="cls-3" d="M246.71,200.46v4h1l-1-4m187,0l1,1-1-1m55,0l1,1-1-1m-411,1l1,1-1-1m407.33,1.67l.33,.67-.33-.67m-52.33,.33l1,1-1-1Z"/>
  <path class="cls-2" d="M432.71,204.46l1,1-1-1Z"/>
  <path class="cls-3" d="M94.71,205.46l1,1-1-1Z"/>
  <path class="cls-2" d="M179.04,206.13l.33,.67-.33-.67m26.67-.67v4h1l-1-4Z"/>
  <path class="cls-3" d="M431.71,206.46l1,1-1-1m43,0v5h1l-1-5m-296,1v4h1l-1-4m307,1l1,1-1-1m-334,1v3h1l-1-3m279,0l1,1-1-1m-261.67,1.67l.33,.67-.33-.67Z"/>
  <path class="cls-2" d="M216.71,210.46v3h1l-1-3Z"/>
  <path class="cls-3" d="M72.71,211.46l1,1-1-1m357,0l1,1-1-1Z"/>
  <path class="cls-2" d="M474.71,211.46v3h1l-1-3m-229,1v3h1l-1-3m184,0l1,1-1-1Z"/>
  <path class="cls-3" d="M92.71,213.46l1,1-1-1m124,0v6h1l-1-6m213,1l1,1-1-1m-184,1v23h1l-1-23m185,0l1,1-1-1m-339,1l1,1-1-1Z"/>
  <path class="cls-2" d="M180.04,217.13l.33,.67-.33-.67Z"/>
  <path class="cls-3" d="M179.71,218.46v3h1l-1-3m-89,1l1,1-1-1m116,0v4h1l-1-4m-140,1l1,1-1-1m103.33,.67l.33,.67-.33-.67m-17,1l.33,.67-.33-.67Z"/>
  <path class="cls-2" d="M437.71,222.46l1,1-1-1m-230.67,1.67l.33,.67-.33-.67Z"/>
  <path class="cls-3" d="M438.71,223.46l1,1-1-1m-375,1l1,1-1-1m25,0l1,1-1-1m336,0l1,1-1-1m15,0l1,1-1-1Z"/>
  <path class="cls-2" d="M180.71,225.46l1,1-1-1m243,0l1,1-1-1Z"/>
  <path class="cls-1" d="M424.71,225.46c-7.31,11.09-13.88,22.33-21.87,33-2.92,3.9-8.59,9.75-8.42,15,.17,5.12,7.51,10.5,11.29,13.21,15.6,11.17,33.4,9.42,51,5.79l14-48c-19.35,0-30.79-8.33-46-19Z"/>
  <path class="cls-2" d="M441.71,225.46l1,1-1-1Z"/>
  <path class="cls-3" d="M87.71,226.46l1,1-1-1m93.33,.67l.33,.67-.33-.67Z"/>
  <path class="cls-2" d="M217.71,226.46l1,1-1-1Z"/>
  <path class="cls-3" d="M442.71,226.46l1,1-1-1m-225,1v4h1l-1-4Z"/>
  <path class="cls-2" d="M422.71,227.46l1,1-1-1Z"/>
  <path class="cls-3" d="M444.71,227.46l1,1-1-1m-384,1l1,1-1-1m110,0l1,1-1-1m121,0v1h3l-3-1Z"/>
  <path class="cls-2" d="M302.71,357.46l-21-11h-1l-17,5c1.6,3.08,13.32,14.6,4.94,16.46-8.08,1.8-18.37-17.29-24.03-21.56-33.82-25.54-51.58-69.19-60.91-109.9h-1c7.8,60.43,36.08,122.47,84,161.2,19.35,15.64,42.56,22.76,63,36.48,11.7,7.85,23.29,17.01,32.91,27.33,5.76,6.17,11.1,15.58,19.09,19.01,10.61,4.56,25.68,1.99,37,1.99-.88-16.95-18.06-17.85-29-25.64-13.77-9.82-24.17-24.12-38-34.21-5.06-3.69-19.53-9.92-21.11-16.24-1.2-4.83,6.16-8.55,9.07-11.2,8.84-8.05,15.84-18.87,20.73-29.71,11.84-26.26,9.93-55.85,18.34-83,5.78-18.65,19.87-30.87,27.98-48-10.54,4.38-21.28,9.16-33,8.87-13.39-.33-24.51-6.39-37-10.15-14.12-4.25-29.38-5.75-44-4.01-8.99,1.07-27.47,.48-34.4,7.14-5.46,5.25-.08,26.37,.99,33.15,3.31,21,8.49,44.93,21.93,62,7.65,9.72,19.7,17.26,32.48,14.02,4.85-1.23,7.26-7.51,11.99-7.99,8.63-.87,2.28,10.37,.21,12.96-8.39,10.53-20.29,14.95-30.01,23.53-4.4,3.88-4.13,13.04-9.29,15.33-8.63,3.83-5.98-10.37-4.38-13.86,4.11-8.97,12.69-12.85,20.48-18Z"/>
  <path class="cls-3" d="M314.38,228.79l.67,.33-.67-.33m132.33-.33l1,1-1-1m-163.33,1.33l.67,.33-.67-.33m39,0l.67,.33-.67-.33m107.33-.33l1,1-1-1m19,0l1,1-1-1m-172,1l1,1-1-1m51,0l1,1-1-1m93,0l1,1-1-1m10,0l1,1-1-1m20,0l1,1-1-1Z"/>
  <path class="cls-2" d="M451.71,230.46l1,1-1-1Z"/>
  <path class="cls-3" d="M85.71,231.46l1,1-1-1Z"/>
  <path class="cls-2" d="M181.71,231.46l1,1-1-1Z"/>
  <path class="cls-3" d="M207.71,231.46v3h1l-1-3m64,0l1,1-1-1m60,0l1,1-1-1Z"/>
  <path class="cls-2" d="M431.71,231.46l1,1-1-1Z"/>
  <path class="cls-3" d="M453.71,231.46l1,1-1-1Z"/>
  <path class="cls-2" d="M454.71,231.46l1,1-1-1Z"/>
  <path class="cls-3" d="M57.71,232.46l1,1-1-1m96.33,.67l.33,.67-.33-.67m28,0l.33,.67-.33-.67m85.67-.67l1,1-1-1m68,0l1,1-1-1m84,0l1,1-1-1m38.67,.33l.67,.33-.67-.33Z"/>
  <path class="cls-2" d="M474.71,232.46l1,1-1-1Z"/>
  <path class="cls-3" d="M263.71,233.46l1,1-1-1m75,0l1,1-1-1m96,0l1,1-1-1m30,0v1h7l-7-1Z"/>
  <path class="cls-2" d="M207.71,234.46l1,1-1-1Z"/>
  <path class="cls-3" d="M259.71,234.46l1,1-1-1m159,0l1,1-1-1m-363,1l1,1-1-1m116.33,.67l.33,.67-.33-.67m84.67-.67l1,1-1-1m87,0l1,1-1-1m62,0l1,1-1-1Z"/>
  <path class="cls-2" d="M437.71,235.46l1,1-1-1m-219,1l1,1-1-1Z"/>
  <path class="cls-3" d="M439.71,236.46l1,1-1-1m-220.67,1.67l.33,.67-.33-.67m129.67-.67l1,1-1-1m50,0l1,1-1-1m18,0l1,1-1-1m25,0l1,1-1-1m-359,1l1,1-1-1Z"/>
  <path class="cls-2" d="M245.71,238.46v5h1l-1-5Z"/>
  <path class="cls-3" d="M403.71,238.46l1,1-1-1m40,0l1,1-1-1m-260.67,1.67l.33,.67-.33-.67m170.67-.67l1,1-1-1Z"/>
  <path class="cls-2" d="M415.71,239.46l1,1-1-1Z"/>
  <path class="cls-3" d="M445.71,239.46l1,1-1-1m-236.67,1.67l.33,.67-.33-.67m148.67-.67l1,1-1-1m32,0l1,1-1-1Z"/>
  <path class="cls-2" d="M447.71,240.46l1,1-1-1Z"/>
  <path class="cls-3" d="M448.71,240.46l1,1-1-1m-397,1l1,1-1-1m103.33,.67l.33,.67-.33-.67m18,0l.33,.67-.33-.67m188.67-.67l1,1-1-1m24,0l1,1-1-1m16,0l1,1-1-1Z"/>
  <path class="cls-2" d="M450.71,241.46l1,1-1-1Z"/>
  <path class="cls-3" d="M451.71,241.46l1,1-1-1Z"/>
  <path class="cls-2" d="M208.71,242.46l1,1-1-1Z"/>
  <path class="cls-3" d="M309.71,242.46l1,1-1-1m60,0v1h9l-9-1m44,0l1,1-1-1m41.67,.33l.67,.33-.67-.33m-148.67,.67l1,1-1-1Z"/>
  <path class="cls-5" d="M306.71,277.46c2.97,2.1,7.87,3.47,10.01,6.42,2.24,3.09,2.47,7.34,4.79,10.57,3.52,4.91,9.09,8.53,15.2,8.92,3.92,.25,9.2-1.63,7.21-6.67-1.58-4.02-8.99-4.44-12.08-7.44-4.57-4.43-2.07-9.87-5.16-14.35-1.97-2.86-6.16-2.17-8.97-3.61-10.83-5.55-5.95-12.62-3.25-20.82,1.1-3.35-1.04-6.73-4.73-6.62-10.7,.31-9.02,16.09-9.77,22.62-1.32,11.5-13.69,17.03-4.61,30,2.8,4,19.56,15.11,20.69,3.98,.55-5.44-6.06-5.45-9.23-7.71-6.17-4.39-3.32-10.17-.11-15.26Z"/>
  <path class="cls-2" d="M458.71,243.46l1,1-1-1Z"/>
  <path class="cls-3" d="M459.71,243.46v1h3l-3-1m-410,1l1,1-1-1m134.33,.67l.33,.67-.33-.67Z"/>
  <path class="cls-2" d="M219.71,244.46l1,1-1-1Z"/>
  <path class="cls-3" d="M313.71,244.46l1,1-1-1Z"/>
  <path class="cls-2" d="M470.71,244.46l1,1-1-1Z"/>
  <path class="cls-3" d="M79.71,245.46l1,1-1-1m140.33,.67l.33,.67-.33-.67m84.67-.67l1,1-1-1m107,0l1,1-1-1m59,0l1,1-1-1m-167,1l1,1-1-1m11,0l1,1-1-1m-267,1l1,1-1-1m31,0l1,1-1-1m95,0l1,1-1-1m36.33,.67l.33,.67-.33-.67Z"/>
  <path class="cls-2" d="M469.71,247.46l1,1-1-1m-60,1l1,1-1-1Z"/>
  <path class="cls-3" d="M77.71,249.46l1,1-1-1Z"/>
  <path class="cls-2" d="M209.71,249.46l1,1-1-1Z"/>
  <path class="cls-3" d="M301.71,249.46l1,1-1-1m13,0l1,1-1-1m94,0l1,1-1-1m-253,1l1,1-1-1m29,0l1,1-1-1m72.33,.67l.33,.67-.33-.67m211.67-.67l1,1-1-1Z"/>
  <path class="cls-2" d="M220.71,251.46l1,1-1-1Z"/>
  <path class="cls-3" d="M246.71,251.46v4h1l-1-4m-202,1l1,1-1-1m130,0l1,1-1-1m46,0l1,1-1-1m186,0l1,1-1-1m-95,1l1,1-1-1m81,0l1,1-1-1m13,0l1,1-1-1m62,0l1,1-1-1m-281.67,1.67l.33,.67-.33-.67m24.67-.67l1,1-1-1m89,0l1,1-1-1Z"/>
  <path class="cls-2" d="M210.71,255.46l1,1-1-1m36.33,.67l.33,.67-.33-.67m219.67-.67l1,1-1-1m-245,1l1,1-1-1m182,0l1,1-1-1Z"/>
  <path class="cls-3" d="M466.71,256.46l1,1-1-1m-425,1l1,1-1-1m115,0l1,1-1-1m19,0l1,1-1-1m46.33,.67l.33,.67-.33-.67m167.67-.67l1,1-1-1m13,0l1,1-1-1m-93,1l1,1-1-1Z"/>
  <path class="cls-2" d="M465.71,258.46l1,1-1-1Z"/>
  <path class="cls-3" d="M187.04,260.13l.33,.67-.33-.67m25,0l.33,.67-.33-.67m253.67-.67l1,1-1-1m-207.67,1.67l.33,.67-.33-.67m129.67-.67l1,1-1-1Z"/>
  <path class="cls-2" d="M400.71,260.46l1,1-1-1Z"/>
  <path class="cls-3" d="M71.71,261.46l1,1-1-1Z"/>
  <path class="cls-2" d="M211.71,261.46l1,1-1-1m11,0l1,1-1-1Z"/>
  <path class="cls-3" d="M310.04,262.13l.33,.67-.33-.67m89.67-.67l1,1-1-1Z"/>
  <path class="cls-2" d="M464.71,261.46l1,1-1-1Z"/>
  <path class="cls-3" d="M38.71,262.46l1,1-1-1m138,0l1,1-1-1m46.33,.67l.33,.67-.33-.67m24.67-.67v3h1l-1-3m217,0l1,1-1-1m-307,1l1,1-1-1m30.33,.67l.33,.67-.33-.67m-150.33,.33l1,1-1-1m175.33,.67l.33,.67-.33-.67m184.67-.67l1,1-1-1Z"/>
  <path class="cls-2" d="M463.71,264.46l1,1-1-1m-216,1l1,1-1-1Z"/>
  <path class="cls-3" d="M299.71,265.46l1,1-1-1m-263,1l1,1-1-1m141,0l1,1-1-1Z"/>
  <path class="cls-2" d="M212.71,266.46l1,1-1-1m11,0l1,1-1-1Z"/>
  <path class="cls-3" d="M189.04,268.13l.33,.67-.33-.67m34.67-.67l1,1-1-1m172,0l1,1-1-1Z"/>
  <path class="cls-2" d="M462.71,267.46l1,1-1-1Z"/>
  <path class="cls-3" d="M258.71,268.46l1,1-1-1m204,0l1,1-1-1m-304,1l1,1-1-1m55,0l1,1-1-1m181,0l1,1-1-1m-328,1l1,1-1-1m112,0l1,1-1-1Z"/>
  <path class="cls-2" d="M213.71,270.46l1,1-1-1Z"/>
  <path class="cls-3" d="M249.04,271.13l.33,.67-.33-.67Z"/>
  <path class="cls-2" d="M461.71,270.46l1,1-1-1Z"/>
  <path class="cls-3" d="M189.71,271.46l1,1-1-1m35.33,.67l.33,.67-.33-.67m92.67-.67l1,1-1-1m76,0l1,1-1-1m68,0l1,1-1-1m-396,1l1,1-1-1Z"/>
  <path class="cls-2" d="M248.71,272.46l1,1-1-1Z"/>
  <path class="cls-3" d="M324.71,272.46l1,1-1-1m-109.67,1.67l.33,.67-.33-.67m177.67-.67l1,1-1-1m-233,1l1,1-1-1m20,0l1,1-1-1m80,0l1,1-1-1m35,0l1,1-1-1m86,0l1,1-1-1m80,0l1,1-1-1m-270,1l1,1-1-1m35.33,.67l.33,.67-.33-.67m101.67,.33v3h1l-1-3m67,0l1,1-1-1m-145,1l1,1-1-1m130,0l1,1-1-1m16,0l1,1-1-1Z"/>
  <path class="cls-2" d="M459.71,277.46l1,1-1-1Z"/>
  <path class="cls-3" d="M160.71,278.46l1,1-1-1m31,0l1,1-1-1m24,0l1,1-1-1Z"/>
  <path class="cls-2" d="M249.71,278.46l1,1-1-1m147,0l1,1-1-1Z"/>
  <path class="cls-3" d="M459.71,278.46l1,1-1-1m-397,1l1,1-1-1m164,0l1,1-1-1m34,0l1,1-1-1Z"/>
  <path class="cls-2" d="M397.71,279.46l1,1-1-1Z"/>
  <path class="cls-3" d="M378.71,280.46l1,1-1-1Z"/>
  <path class="cls-2" d="M398.71,280.46l1,1-1-1m60,0l1,1-1-1Z"/>
  <path class="cls-3" d="M61.71,281.46l1,1-1-1m120,0l1,1-1-1m110,0l1,1-1-1m11,0l1,1-1-1m12,0l1,1-1-1Z"/>
  <path class="cls-2" d="M399.71,281.46l1,1-1-1Z"/>
  <path class="cls-3" d="M458.71,281.46l1,1-1-1m-266,1l1,1-1-1m24,0l1,1-1-1Z"/>
  <path class="cls-2" d="M227.71,282.46l1,1-1-1Z"/>
  <path class="cls-3" d="M251.04,283.13l.33,.67-.33-.67m149.67-.67l1,1-1-1m-239,1l1,1-1-1m66,0l1,1-1-1m100,0l1,1-1-1m50,0l1,1-1-1m24,0l1,1-1-1m-374,1l1,1-1-1m33,0l1,1-1-1Z"/>
  <path class="cls-2" d="M250.71,284.46l1,1-1-1Z"/>
  <path class="cls-3" d="M261.71,284.46l1,1-1-1Z"/>
  <path class="cls-2" d="M457.71,284.46l1,1-1-1Z"/>
  <path class="cls-3" d="M182.71,285.46l1,1-1-1m11,0l1,1-1-1m24,0l1,1-1-1Z"/>
  <path class="cls-2" d="M388.71,285.46l5,5-5-5Z"/>
  <path class="cls-3" d="M457.71,285.46l1,1-1-1m-431,1l1,1-1-1Z"/>
  <path class="cls-2" d="M217.71,286.46l1,1-1-1Z"/>
  <path class="cls-3" d="M228.71,286.46l1,1-1-1m100,0l1,1-1-1Z"/>
  <path class="cls-1" d="M388.71,286.46l-12.43,66-19.57,41c15.68,5.1,40.66,9.87,55.98,.91,7.22-4.22,13.51-14.51,17.02-21.91-11.95,2.32-23.04,2.4-35-.21-3.76-.82-12.93-4.07-8.46-9.47,3.05-3.69,8.62-1.29,12.46-.58,8.75,1.63,18.28,2.15,27,.02,19.36-4.72,26.23-40.15,27-57.76-26.72,5.18-42.35-3.68-64-18Z"/>
  <path class="cls-3" d="M405.71,286.46l1,1-1-1m-243,1l1,1-1-1m89.33,.67l.33,.67-.33-.67m124.67-.67l1,1-1-1m11,0l1,1-1-1m-204,1l1,1-1-1m11,0l1,1-1-1m68,0l1,1-1-1m29,0l1,1-1-1m117,0l1,1-1-1m48.33,.67l.33,.67-.33-.67m-238.33,.33l1,1-1-1m11,0l1,1-1-1Z"/>
  <path class="cls-2" d="M410.71,289.46l1,1-1-1Z"/>
  <path class="cls-3" d="M303.71,290.46l1,1-1-1m83,0l1,1-1-1m26,0l1,1-1-1m-228,1l1,1-1-1m11,0l1,1-1-1m180,0l1,1-1-1m39,0l1,1-1-1m-195,1l1,1-1-1m11,0l1,1-1-1m22,0l1,1-1-1m11,0l1,1-1-1m29,0l1,1-1-1m13,0l1,1-1-1m31,0l1,1-1-1m60,0l1,1-1-1Z"/>
  <path class="cls-2" d="M417.71,292.46l1,1-1-1m36,0l1,1-1-1Z"/>
  <path class="cls-3" d="M454.71,292.46l1,1-1-1Z"/>
  <path class="cls-2" d="M252.71,293.46l1,1-1-1Z"/>
  <path class="cls-3" d="M307.71,293.46l1,1-1-1m13,0l1,1-1-1m21,0l1,1-1-1m56,0l1,1-1-1m22,0l1,1-1-1Z"/>
  <path class="cls-2" d="M420.71,293.46l1,1-1-1m29,0l1,1-1-1Z"/>
  <path class="cls-3" d="M450.71,293.46l1,1-1-1m-286,1l1,1-1-1m21,0l1,1-1-1m11,0l1,1-1-1m97,0l1,1-1-1m19,0l1,1-1-1m73,0l1,1-1-1m38,0l1,1-1-1Z"/>
  <path class="cls-2" d="M425.38,294.79l.67,.33-.67-.33Z"/>
  <path class="cls-3" d="M446.38,294.79l.67,.33-.67-.33m-225.67,.67l1,1-1-1m11,0l1,1-1-1m112,0l1,1-1-1Z"/>
  <path class="cls-2" d="M385.71,295.46l1,1-1-1Z"/>
  <path class="cls-3" d="M400.71,295.46l1,1-1-1m29,0v1h11l-11-1m-373,1l1,1-1-1Z"/>
  <path class="cls-2" d="M220.71,296.46l1,1-1-1Z"/>
  <path class="cls-3" d="M253.71,296.46l1,1-1-1m11,0l1,1-1-1m110,0l1,1-1-1m-188,1l1,1-1-1m11,0l1,1-1-1m98,0l1,1-1-1m20,0l1,1-1-1Z"/>
  <path class="cls-2" d="M403.71,297.46l1,1-1-1Z"/>
  <path class="cls-3" d="M221.71,298.46l1,1-1-1m11,0l1,1-1-1m64,0l1,1-1-1m88.33,.67l.33,.67-.33-.67m20.67-.67l1,1-1-1m-207,1l1,1-1-1Z"/>
  <path class="cls-2" d="M221.71,299.46l1,1-1-1Z"/>
  <path class="cls-3" d="M254.71,299.46l1,1-1-1m11,0l1,1-1-1m32,0l1,1-1-1m29,0l1,1-1-1m81,0l1,1-1-1m-352,1l1,1-1-1Z"/>
  <path class="cls-2" d="M233.71,300.46l1,1-1-1m21,0l1,1-1-1Z"/>
  <path class="cls-3" d="M298.71,300.46l1,1-1-1m45,0l1,1-1-1m66,0l1,1-1-1m-187,1l1,1-1-1m93,0l1,1-1-1Z"/>
  <path class="cls-2" d="M411.71,301.46l1,1-1-1Z"/>
  <path class="cls-3" d="M412.71,301.46l1,1-1-1m-213,1l1,1-1-1m67,0l1,1-1-1m35,0l1,1-1-1m72,0l1,1-1-1m41,0l1,1-1-1m-180,1l1,1-1-1m21,0l1,1-1-1Z"/>
  <path class="cls-2" d="M417.71,303.46l1,1-1-1Z"/>
  <path class="cls-3" d="M418.71,303.46l1,1-1-1m-364,1l1,1-1-1m113,0l1,1-1-1m56,0l1,1-1-1m84.67,.33l.67,.33-.67-.33m75.33-.33l1,1-1-1m38.67,.33l.67,.33-.67-.33m27,0l.67,.33-.67-.33Z"/>
  <path class="cls-2" d="M452.71,304.46l1,1-1-1Z"/>
  <path class="cls-3" d="M189.71,305.46l1,1-1-1Z"/>
  <path class="cls-2" d="M235.71,305.46l1,1-1-1Z"/>
  <path class="cls-3" d="M267.71,305.46l1,1-1-1Z"/>
  <path class="cls-2" d="M383.71,305.46l1,1-1-1m43,0l1,1-1-1Z"/>
  <path class="cls-3" d="M428.38,305.79l.67,.33-.67-.33m15,0l.67,.33-.67-.33Z"/>
  <path class="cls-2" d="M444.71,305.46l1,1-1-1Z"/>
  <path class="cls-3" d="M452.71,305.46l1,1-1-1m-217,1l1,1-1-1m21,0l1,1-1-1m-88,1l1,1-1-1m33,0l1,1-1-1Z"/>
  <path class="cls-2" d="M224.71,307.46l1,1-1-1Z"/>
  <path class="cls-3" d="M236.71,308.46l1,1-1-1m136,0l1,1-1-1m-147,1l1,1-1-1m32,0l1,1-1-1Z"/>
  <path class="cls-2" d="M451.71,309.46l1,1-1-1Z"/>
  <path class="cls-3" d="M53.71,310.46l1,1-1-1m138,0l1,1-1-1Z"/>
  <path class="cls-2" d="M237.71,310.46l1,1-1-1Z"/>
  <path class="cls-3" d="M383.04,311.13l.33,.67-.33-.67m68.67-.67l1,1-1-1m-248,2l1,1-1-1Z"/>
  <path class="cls-2" d="M226.71,312.46l1,1-1-1m12,0l1,1-1-1m20,0l1,1-1-1m124,0l1,1-1-1m68,1l1,1-1-1Z"/>
  <path class="cls-3" d="M204.71,314.46l1,1-1-1m23,0l1,1-1-1m32,0l1,1-1-1m191,0l1,1-1-1m-279,1l1,1-1-1m22,0l1,1-1-1m46,0l1,1-1-1m32,0l1,1-1-1m100,0l1,1-1-1m-166,1l1,1-1-1m23,0l1,1-1-1m-176,1l1,1-1-1m188,0l1,1-1-1Z"/>
  <path class="cls-2" d="M260.71,317.46l1,1-1-1Z"/>
  <path class="cls-3" d="M272.71,317.46l1,1-1-1m109.33,.67l.33,.67-.33-.67m-228.33,.33l1,1-1-1Z"/>
  <path class="cls-2" d="M449.71,318.46l1,1-1-1m-220,1l1,1-1-1Z"/>
  <path class="cls-3" d="M241.71,319.46l1,1-1-1m20,0l1,1-1-1m12,0l1,1-1-1Z"/>
  <path class="cls-2" d="M381.71,319.46l1,1-1-1Z"/>
  <path class="cls-3" d="M449.71,319.46l1,1-1-1m-276,1l1,1-1-1m-22,1l1,1-1-1Z"/>
  <path class="cls-2" d="M230.71,321.46l1,1-1-1Z"/>
  <path class="cls-3" d="M242.71,321.46l1,1-1-1m20,0l1,1-1-1m12,0l1,1-1-1m-78,1l1,1-1-1m174,0l1,1-1-1m78.33,.67l.33,.67-.33-.67Z"/>
  <path class="cls-2" d="M231.71,323.46l1,1-1-1Z"/>
  <path class="cls-3" d="M263.71,323.46l1,1-1-1m-66,1l1,1-1-1m183,0v3h1l-1-3Z"/>
  <path class="cls-2" d="M232.71,325.46l1,1-1-1Z"/>
  <path class="cls-3" d="M264.71,325.46l1,1-1-1m-66,1l1,1-1-1Z"/>
  <path class="cls-2" d="M245.71,326.46l1,1-1-1Z"/>
  <path class="cls-3" d="M277.71,326.46l1,1-1-1m170,0l1,1-1-1m-271,1l1,1-1-1Z"/>
  <path class="cls-2" d="M233.71,327.46l1,1-1-1m32,0l1,1-1-1m115,0l1,1-1-1Z"/>
  <path class="cls-3" d="M199.71,328.46l1,1-1-1m47,0l1,1-1-1m123,0l1,1-1-1m-223,1l1,1-1-1m31,0l1,1-1-1Z"/>
  <path class="cls-2" d="M234.71,329.46l1,1-1-1Z"/>
  <path class="cls-3" d="M279.71,329.46l1,1-1-1Z"/>
  <path class="cls-2" d="M446.71,329.46l1,1-1-1Z"/>
  <path class="cls-3" d="M200.71,330.46l1,1-1-1m47,0l1,1-1-1m20,0l1,1-1-1m179,0l1,1-1-1Z"/>
  <path class="cls-2" d="M248.71,331.46l1,1-1-1Z"/>
  <path class="cls-3" d="M380.04,332.13l.33,.67-.33-.67m-178.33,.33l1,1-1-1m12,0l1,1-1-1m23,0l1,1-1-1Z"/>
  <path class="cls-2" d="M268.71,332.46l1,1-1-1Z"/>
  <path class="cls-3" d="M249.71,333.46l1,1-1-1m20,0l1,1-1-1Z"/>
  <path class="cls-2" d="M379.71,333.46l1,1-1-1Z"/>
  <path class="cls-3" d="M445.71,333.46l1,1-1-1m-243,1l1,1-1-1m12,0l1,1-1-1m23,0l1,1-1-1m131,0l1,1-1-1m-226,2l1,1-1-1m61,0l1,1-1-1m12,0l1,1-1-1Z"/>
  <path class="cls-2" d="M238.71,336.46l1,1-1-1m13,0l1,1-1-1Z"/>
  <path class="cls-3" d="M271.71,336.46l1,1-1-1m52,0l1,1-1-1m3,0l1,1-1-1Z"/>
  <path class="cls-2" d="M444.71,336.46l1,1-1-1Z"/>
  <path class="cls-3" d="M239.71,337.46l1,1-1-1m33,0l1,1-1-1m56,0l1,1-1-1m50.33,.67l.33,.67-.33-.67m65.67-.67l1,1-1-1m-240,1l1,1-1-1m12,0l1,1-1-1m113,0l1,1-1-1m-89,1l1,1-1-1m13,0l1,1-1-1m114,0l1,1-1-1Z"/>
  <path class="cls-2" d="M378.71,339.46l1,1-1-1m65,0l1,1-1-1Z"/>
  <path class="cls-3" d="M290.71,340.46l1,1-1-1m29,0l1,1-1-1m124,0l1,1-1-1m-304,1l1,1-1-1m79,0l1,1-1-1m24,1l1,1-1-1m13,0l1,1-1-1Z"/>
  <path class="cls-2" d="M442.71,342.46l1,1-1-1Z"/>
  <path class="cls-3" d="M53.04,344.13l.33,.67-.33-.67m324.67-.67l1,1-1-1m65,0l1,1-1-1m-113,1l1,1-1-1m37,0l1,1-1-1Z"/>
  <path class="cls-2" d="M377.71,344.46l1,1-1-1Z"/>
  <path class="cls-3" d="M185.71,345.46l1,1-1-1m23,0l1,1-1-1m36,0l1,1-1-1m59,0l1,1-1-1m7.67,.33l.67,.33-.67-.33Z"/>
  <path class="cls-2" d="M441.71,345.46l1,1-1-1Z"/>
  <path class="cls-3" d="M136.71,346.46l1,1-1-1m85,0l1,1-1-1m37,0l1,1-1-1Z"/>
  <path class="cls-2" d="M259.71,347.46l1,1-1-1Z"/>
  <path class="cls-3" d="M282.71,347.46l1,1-1-1m94,0l1,1-1-1m-11,1l1,1-1-1Z"/>
  <path class="cls-2" d="M376.71,348.46l1,1-1-1Z"/>
  <path class="cls-3" d="M440.71,348.46l1,1-1-1m-306,1l1,1-1-1m89,0l1,1-1-1m24,0l1,1-1-1m38,0l1,1-1-1m-74,1l1,1-1-1Z"/>
  <path class="cls-2" d="M439.71,350.46l1,1-1-1Z"/>
  <path class="cls-3" d="M53.71,351.46l1,1-1-1m209,0l1,1-1-1m26,0l1,1-1-1m76,0l1,1-1-1m11,0l1,1-1-1m64,0l1,1-1-1m-307,1l1,1-1-1m57,0l1,1-1-1m36,0l1,1-1-1m38,0l1,1-1-1m27,0l1,1-1-1m33,0l1,1-1-1Z"/>
  <path class="cls-2" d="M375.71,352.46l1,1-1-1Z"/>
  <path class="cls-3" d="M213.71,353.46l1,1-1-1m80,0l1,1-1-1m29,0l1,1-1-1m116,0l1,1-1-1m-187,1l1,1-1-1m44.67,.33l.67,.33-.67-.33m25.33-.33l1,1-1-1m-191,1l1,1-1-1m61,0l1,1-1-1m36,0l1,1-1-1m25,0l1,1-1-1m47.67,.33l.67,.33-.67-.33m20.33-.33l1,1-1-1m54,0l1,1-1-1Z"/>
  <path class="cls-2" d="M437.71,355.46l1,1-1-1Z"/>
  <path class="cls-3" d="M215.71,356.46l1,1-1-1m87,0l1,1-1-1m17,0l1,1-1-1m117,0l1,1-1-1m-118,1l1,1-1-1m44,0l1,1-1-1m-63,1l1,1-1-1m74,0l1,1-1-1m60,0l1,1-1-1m-306,1l1,1-1-1m90,0l1,1-1-1m13,0l1,1-1-1m201,0l1,1-1-1m-376,1l1,1-1-1m215,0l1,1-1-1m26,0l1,1-1-1m65,0l1,1-1-1m30,0l1,1-1-1Z"/>
  <path class="cls-2" d="M392.71,360.46l1,1-1-1Z"/>
  <path class="cls-3" d="M429.71,360.46l1,1-1-1m-286.33,1.33l.67,.33-.67-.33m151.33-.33l1,1-1-1m78,0l1,1-1-1m23.67,.33l.67,.33-.67-.33m30.33-.33l1,1-1-1Z"/>
  <path class="cls-5" d="M139.71,396.46c3.33,1.74,8.76,3.32,11.01,6.42,2.51,3.45,2.71,8.03,5.52,11.54,3.72,4.65,9.43,7.84,15.46,7.91,3.77,.04,7.9-2.33,6.22-6.72-1.56-4.06-8.96-4.33-12.08-7.36-4.57-4.43-2.07-9.87-5.16-14.35-2.1-3.06-7-2.31-9.97-4.18-10.9-6.88-3.57-12.46-2.37-21.25,.47-3.46-2.08-6.24-5.63-5.63-9.83,1.69-8.11,15.84-8.9,22.62-1.43,12.18-13.71,17.34-4,30.91,2.86,3.99,19.19,13.17,20.23,3.05,.59-5.71-7.01-5.64-10.11-8.39-5.03-4.47-2.5-9.49-.23-14.57Z"/>
  <path class="cls-3" d="M219.71,362.46l1,1-1-1m13,0l1,1-1-1m39,0l1,1-1-1m129.67,.33l.67,.33-.67-.33Z"/>
  <path class="cls-2" d="M402.71,362.46l1,1-1-1m19,0l1,1-1-1Z"/>
  <path class="cls-3" d="M422.71,362.46l1,1-1-1m-366,1l1,1-1-1m68,0l1,1-1-1m23,0l1,1-1-1m86,0l1,1-1-1m138,0l1,1-1-1m38,0v1h7l-7-1m-212,1l1,1-1-1m92,0l1,1-1-1m20,0l1,1-1-1Z"/>
  <path class="cls-2" d="M371.71,364.46l1,1-1-1m12.33,.67l.33,.67-.33-.67Z"/>
  <path class="cls-3" d="M166.71,365.46l1,1-1-1m96,0l1,1-1-1m9,0l1,1-1-1m17,0l1,1-1-1m-152,1l1,1-1-1m12.33,.67l.33,.67-.33-.67m73.67-.67l1,1-1-1m41,0l1,1-1-1m43,0l1,1-1-1m64,0l1,1-1-1m-171,1l1,1-1-1m37,0l1,1-1-1m122,0l1,1-1-1m-223,1l1,1-1-1m102,0l1,1-1-1m31,0l1,1-1-1m17,0l1,1-1-1m18,0l1,1-1-1m66,0l1,1-1-1m-250,1l1,1-1-1m165,0l1,1-1-1m73,0l1,1-1-1m29,0l1,1-1-1m-252,1l1,1-1-1m91,0l1,1-1-1m143,0l1,1-1-1Z"/>
  <path class="cls-2" d="M388.71,370.46l1,1-1-1Z"/>
  <path class="cls-3" d="M389.71,370.46l1,1-1-1m-329,1l1,1-1-1m105,0l1,1-1-1m227.67,.33l.67,.33-.67-.33m-110.67,.67l1,1-1-1m14,0l1,1-1-1m71,0l1,1-1-1Z"/>
  <path class="cls-2" d="M397.71,372.46l1,1-1-1Z"/>
  <path class="cls-3" d="M399.38,372.79l.67,.33-.67-.33m26.33-.33l1,1-1-1Z"/>
  <path class="cls-2" d="M426.71,372.46l1,1-1-1Z"/>
  <path class="cls-3" d="M133.71,373.46l1,1-1-1m108,0l1,1-1-1Z"/>
  <path class="cls-2" d="M405.38,373.79l.67,.33-.67-.33Z"/>
  <path class="cls-3" d="M406.71,373.46v1h6l-6-1m7,0v1h7l-7-1Z"/>
  <path class="cls-2" d="M421.38,373.79l.67,.33-.67-.33Z"/>
  <path class="cls-3" d="M428.71,373.46l1,1-1-1m-257.33,1.33l.67,.33-.67-.33m71.33-.33l1,1-1-1m39,0l1,1-1-1m85,0l1,1-1-1m-187,1l1,1-1-1m50,0l1,1-1-1m14,0l1,1-1-1m-100,1l1,1-1-1m63,0l1,1-1-1m86,0l1,1-1-1m61,0l1,1-1-1m12,0l1,1-1-1Z"/>
  <path class="cls-2" d="M426.71,376.46l1,1-1-1Z"/>
  <path class="cls-3" d="M364.71,378.46l1,1-1-1m61,0l1,1-1-1m-357,1l1,1-1-1m283,0l1,1-1-1Z"/>
  <path class="cls-2" d="M424.71,379.46l1,1-1-1Z"/>
  <path class="cls-3" d="M108.71,380.46l1,1-1-1m171.33,.67l.33,.67-.33-.67m-208.33,.33l1,1-1-1m72,0l1,1-1-1m219,0l1,1-1-1m-289,1l1,1-1-1m349,0l1,1-1-1m-347,1l1,1-1-1m137,0l1,1-1-1m24,0l1,1-1-1m112,0l1,1-1-1Z"/>
  <path class="cls-2" d="M361.71,383.46l1,1-1-1m60,0l1,1-1-1Z"/>
  <path class="cls-3" d="M78.71,384.46l1,1-1-1m22,0l1,1-1-1m44,0l1,1-1-1m69,0l1,1-1-1m24,0l1,1-1-1m123,0l1,1-1-1m-278,1l1,1-1-1m14,0l1,1-1-1m37,0l1,1-1-1m156,0l1,1-1-1m130,1l1,1-1-1m-286,1l1,1-1-1m225,0l1,1-1-1m60,0l1,1-1-1m-286,1l1,1-1-1m148,0l1,1-1-1m64,0l1,1-1-1Z"/>
  <path class="cls-2" d="M417.71,388.46l1,1-1-1Z"/>
  <path class="cls-3" d="M131.71,389.46l1,1-1-1m126,0l1,1-1-1m29,0l1,1-1-1m57,0l1,1-1-1m-213,1l1,1-1-1m21,0l1,1-1-1m107,0l1,1-1-1Z"/>
  <path class="cls-2" d="M356.71,390.46l1,1-1-1Z"/>
  <path class="cls-3" d="M158.71,391.46l1,1-1-1m101,0l1,1-1-1m96,0l1,1-1-1m-95,1l1,1-1-1Z"/>
  <path class="cls-2" d="M344.71,405.46c5.46,3.68,12.58,10.83,19,12.27,14.29,3.19,39.58-11.86,48-22.27l-35,2.71-20.91-4.3-11.09,11.59m67-11l1,1-1-1Z"/>
  <path class="cls-3" d="M248.71,395.46l1,1-1-1m-109,1l1,1-1-1m110,0l1,1-1-1m16,0l1,1-1-1m71,0l1,1-1-1m15,0l1,1-1-1m-213,1l1,1-1-1m112,0l1,1-1-1m16,0l1,1-1-1m69,0l1,1-1-1m15,0l1,1-1-1m-123,1l1,1-1-1m122,0l1,1-1-1m58,0l1,1-1-1m-282,1l1,1-1-1m103,0l1,1-1-1m120,0l1,1-1-1m58,0l1,1-1-1m-258,1l1,1-1-1m122,0l1,1-1-1m61,0l1,1-1-1m-181,1l1,1-1-1m179,1l1,1-1-1m73,0l1,1-1-1m-266.67,1.67l.33,.67-.33-.67m121.67-.67l1,1-1-1m17,0l1,1-1-1m125,1l1,1-1-1m-237,1l1,1-1-1m73,0l1,1-1-1m42,0l1,1-1-1m-126,1l1,1-1-1m195,0l1,1-1-1m50,0l1,1-1-1m-134,1l1,1-1-1m18,0l1,1-1-1m114,0l1,1-1-1m-269,1l1,1-1-1m205,0l1,1-1-1m19,0l1,1-1-1m-109,1l1,1-1-1m43,0l1,1-1-1m107,0l1,1-1-1m-124,1l1,1-1-1m86,0l1,1-1-1m36,0l1,1-1-1m-262,1l1,1-1-1m13,0l1,1-1-1m31.67,.33l.67,.33-.67-.33m215.33-.33l1,1-1-1m-245,1l1,1-1-1m13,0l1,1-1-1m90,0l1,1-1-1m44,0l1,1-1-1m48,0l1,1-1-1m19,0l1,1-1-1m-228,1l1,1-1-1m19,0l1,1-1-1m124,0l1,1-1-1m111,0l1,1-1-1m-204,1l1,1-1-1m201,0l1,1-1-1m-19,1l1,1-1-1m15,0l1,1-1-1m-245,1l1,1-1-1m20,0l1,1-1-1m221,0l1,1-1-1m-71,1l1,1-1-1m66,0l1,1-1-1m-205,1l1,1-1-1m141,0l1,1-1-1m44,0l1,1-1-1m-213,1l1,1-1-1m45,0l1,1-1-1m17,0l1,1-1-1m154,1l1,1-1-1m-181,1l1,1-1-1m8,0l1,1-1-1m8,0l1,1-1-1m-3,1l1,1-1-1m79,0l1,1-1-1m-116.33,1.33l.67,.33-.67-.33m2.33-.33l1,1-1-1m52,0v3h1l-1-3m155,0l1,1-1-1m-88,2l1,1-1-1m53,1l1,1-1-1m39,0l1,1-1-1m-190,1l1,1-1-1m30,0l1,1-1-1m123,0l1,1-1-1m-155,1l1,1-1-1m31,0l1,1-1-1m-2,1l1,1-1-1m-33,1l1,1-1-1m164,0l1,1-1-1m37,0l1,1-1-1m-203,1l1,1-1-1m204,0l1,1-1-1m-179,1l1,1-1-1m144,0l1,1-1-1m-147,1l1,1-1-1m-27,1l1,1-1-1m177,0l1,1-1-1m-156,1l1,1-1-1m62,1l1,1-1-1m97,0l1,1-1-1m37,2l1,1-1-1m-33,1l1,1-1-1m34,0l1,1-1-1m1,1l1,1-1-1m-141,1l1,1-1-1m142,0l1,1-1-1m-213,1l1,1-1-1m181,0l1,1-1-1m33,0l1,1-1-1m1,1l1,1-1-1m1,1l1,1-1-1m-151,1l1,1-1-1m-2,1l1,1-1-1m123,0l1,1-1-1m-125,1l1,1-1-1m-70,1l1,1-1-1m65,1l1,1-1-1m-68,1l1,1-1-1m-1,1l1,1-1-1m60,1l1,1-1-1m-62,1l1,1-1-1m59,0l1,1-1-1m150,0l1,1-1-1m-210,1l1,1-1-1m211,0l1,1-1-1m1,1l1,1-1-1m32,1l1,1-1-1m-246,1l1,1-1-1m248,0l1,1-1-1m-190.67,1.67l.33,.67-.33-.67m-58.33,.33l1,1-1-1m253,0l1,1-1-1m3,1l1,1-1-1m-35,1l1,1-1-1m-222,1l1,1-1-1m223,0l1,1-1-1m39,0l1,1-1-1m-38,1l1,1-1-1m40,0l1,1-1-1m-188,1v1h3l-3-1m13,1l1,1-1-1m7,1l1,1-1-1m6,1l1,1-1-1m168,0l1,1-1-1m-271,1v5h1l-1-5m107,0l1,1-1-1m165,0l1,1-1-1m-162,1l1,1-1-1m163,0l1,1-1-1m1,1l1,1-1-1m-160,1l1,1-1-1m118,0l1,1-1-1m-113,6l1,1-1-1m-118,2l1,1-1-1m239,0l1,1-1-1m39.33,1.67l.33,.67-.33-.67m-159.33,.33l1,1-1-1m126.67,.33l.67,.33-.67-.33Z"/>
</svg>