<svg xmlns="http://www.w3.org/2000/svg" id="logo" viewBox="0 0 387.5 500">
  <path d="m11.66,76.49l.95-3.57c8.58-.24,18.35-.24,31.93,2.15,18.35,3.1,38.61,13.11,38.61,30.5,0,6.91-3.1,16.2-15.73,16.2-13.35,0-18.35-11.44-29.07-21.69-11.68-11.91-20.73-19.78-26.69-23.59Zm198.04-17.87l3.57,2.38c-22.16,48.85-77.69,101.28-129.41,132.74-9.29,5.72-12.87,14.3-21.93,14.3-11.68,0-28.12-11.2-35.99-23.59-4.53-7.15-6.2-19.78-6.2-27.64l2.86-1.43c4.29,4.29,12.63,14.3,22.64,14.3,33.13,0,125.12-67.21,164.44-111.06ZM40.98,24.54l.95-3.57c7.39-.72,18.83-1.43,35.51,1.19,16.68,2.62,34.32,10.72,34.32,29.31,0,7.63-6.43,15.25-14.3,15.25-13.82,0-18.11-9.06-30.74-21.21-9.77-9.29-17.64-15.73-25.74-20.97Zm119.16,26.93c-4.29-6.91-10.96-17.16-21.69-29.07l2.15-2.62c14.06,4.05,26.69,8.58,34.56,16.21,4.77,4.53,6.44,8.58,6.44,13.35,0,5.48-4.53,10.01-10.49,10.01-4.05,0-7.63-2.38-10.96-7.86Zm23.12-22.4c-3.81-5.48-9.53-13.58-22.16-25.5l1.91-2.62c14.78,2.62,26.22,7.15,33.6,12.39,5.48,4.29,8.34,9.06,8.34,15.01s-3.57,9.77-9.29,9.77c-5,0-8.1-3.1-12.39-9.06Z" fill="white"/>
  <path d="m233.55,83.17c6.44,4.53,13.35,7.39,21.45,7.39,12.15,0,27.88-1.67,38.13-3.81,19.78-4.05,22.88-10.25,26.45-10.25,13.11,0,33.13,9.06,33.13,16.68,0,5.72-3.34,12.15-11.2,11.92-6.91-.24-16.68-.72-41.23,2.15,7.63,3.57,13.11,7.86,13.11,12.15,0,4.05-3.81,8.82-5,14.06-1.43,7.15-2.86,14.3-4.05,24.07,9.77-.95,17.87-1.91,22.4-2.38,12.63-1.43,15.01-4.29,18.59-4.29,11.44,0,32.41,14.06,32.41,22.4,0,6.67-4.53,12.39-11.2,12.39-9.29,0-32.17-8.58-63.15-8.1-16.92.24-30.5,2.86-43.13,6.43-10.48,2.86-20.26,7.39-25.98,7.39-8.58,0-20.97-13.34-23.59-20.49-1.43-3.81-1.91-7.39-1.91-14.3l1.67-.71c6.2,5.24,12.87,7.15,20.73,7.15,10.01,0,29.31-1.43,48.14-3.1.48-9.29.72-19.54.72-30.27,0-8.1-1.19-14.3-3.1-19.3-10.48,1.91-16.68,3.34-22.64,3.34s-13.35-6.43-16.92-13.35c-3.34-6.19-4.77-11.68-5.48-16.21l1.67-.95Z" fill="white"/>
  <path d="m109.61,290.99c7.15-.72,15.97-1.43,24.31.95,15.01,4.29,31.22,19.07,31.22,28.84,0,8.34-6.67,8.34-13.11,14.78-8.1,8.1-20.02,20.26-33.6,32.89,8.58,5.96,15.01,10.96,15.01,16.21,0,4.77-2.14,9.53-2.38,16.92-.95,30.74,1.19,63.87,1.19,75.07s-5.72,19.3-16.44,19.3c-14.78,0-21.21-12.63-21.21-26.69,0-4.77,1.43-10.72,2.38-18.35,3.34-27.17,3.1-47.19,3.1-57.91,0-3.1-.24-5.72-.95-8.1-17.87,14.3-56.24,40.99-97.95,52.91l-2.38-4.05c45.52-26.69,99.38-80.79,117.49-110.34,4.05-6.43,6.2-11.91,6.2-15.49,0-4.77-8.1-10.25-13.82-13.11l.95-3.81Z" fill="white"/>
  <path d="m254.28,293.37c4.77-1.67,9.06-2.86,17.87-2.86,19.3,0,40.51,11.44,40.51,18.59,0,5.48-3.1,5.96-7.15,12.39-2.62,4.29-5.72,8.82-9.06,13.11,9.06-.72,31.46-4.29,37.18-6.67,5.72-2.38,11.2-9.06,17.16-9.06,7.63,0,36.7,14.3,36.7,25.74,0,7.87-10.01,10.73-14.54,18.35-36.46,61.49-85.79,109.39-169.2,136.32l-2.62-4.05c60.05-32.89,115.11-92.47,135.6-143.71,1.43-3.57,0-5-3.1-5-5,0-18.35,3.81-24.31,6.19-5,1.91-8.34,3.34-13.58,3.34-2.62,0-6.67-2.62-11.2-6.19-21.92,25.74-51.48,50.05-83.65,62.68l-2.62-4.05c39.08-34.32,68.4-80.55,68.4-96.76,0-4.77-5.24-11.2-12.63-15.73l.24-2.62Z" fill="white"/>
</svg>